<svg width="185" height="42" fill="none" xmlns="http://www.w3.org/2000/svg"><path fill-rule="evenodd" clip-rule="evenodd" d="M93.393 37.344s1.097-.531 3.02-1.247c.99.475 3.163 1.462 5.266 2.07 2.846.822 4.744.695 7.4.695 2.657 0 6.452-.443 6.452-.443s-.57-2.087-.633-3.605c-.063-1.518-.063-1.77-.063-1.77s-.569 2.15-.443 3.288c.127 1.139.127 1.518.127 1.518s-4.997.506-8.539.127c-3.542-.38-5.693-.76-7.21-1.265a61.187 61.187 0 00-2.183-.679 61.39 61.39 0 0111.923-3.053c8.855-1.328 7.084-.885 7.084-.885s.19-.38 1.328-.506c1.138-.127 12.776-.696 16.382-.443 3.605.253 13.535.759 14.99 1.708 1.455.948 2.024 1.897 1.581 4.237-.442 2.34-1.328 4.618-2.15 4.111-.822-.505-3.605-2.656-6.262-3.035-2.656-.38-5.566-.317-6.768 0-1.202.316-3.225 1.58-4.174 1.265-.949-.316-2.846-2.088-4.364-1.455-1.518.633-1.582.822-2.277 1.708-.696.885-1.645 1.897-2.404.949-.759-.95-2.15-1.392-3.352-1.456-1.202-.062-2.277.317-2.593.633-.317.317-.759.949-.759.949s-1.961-.506-4.238-.253-6.199.443-8.855-.063c-2.657-.506-8.286-3.1-8.286-3.1zm23.909.76s2.53-.444 3.479.252c.948.696 1.138 1.265 2.846-.126 1.708-1.392 2.783-2.404 4.68-1.392 1.898 1.012 2.783 1.645 4.618.696 1.834-.949 5.819-1.96 9.171-.57 3.352 1.392 5.945 3.606 6.451 2.215.506-1.392.759-2.91-1.834-3.48-2.593-.568-6.451-1.201-9.993-.632-3.543.57-4.175 2.214-5.63 1.771-1.455-.443-3.036-1.77-4.807-1.075-1.771.696-3.289 2.846-4.744 2.15-1.454-.695-2.466-1.328-3.352-.885-.885.443-.885 1.075-.885 1.075z" fill="#1F1C21"/><path d="M1.482.334V9.74h.433c.034-.54.117-1.085.256-1.63.133-.55.305-1.077.522-1.583a8.03 8.03 0 01.734-1.368c.273-.406.573-.734.89-.99.233-.194.533-.378.906-.556a6.053 6.053 0 011.334-.433c.523-.117 1.118-.173 1.796-.178h7.07L.549 23.482l.066.2h21.514V12.875h-.433a21.82 21.82 0 01-.184 1.862c-.094.629-.222 1.24-.389 1.835a8.976 8.976 0 01-.656 1.656c-.267.506-.59.945-.973 1.318-.483.45-.995.778-1.529.99a6.123 6.123 0 01-1.612.4c-.533.06-1.045.083-1.529.077H7.485L22.295.533l-.167-.2H1.482zm27.35 19.612c.006.272-.005.55-.038.84a2.964 2.964 0 01-.223.856 2.183 2.183 0 01-.572.773c-.25.205-.528.367-.845.472a4.704 4.704 0 01-.967.233c-.334.045-.65.078-.957.095l-.567.033v.434h23.415v-10.14h-.434l-.1 1.034c-.05.55-.127 1.095-.227 1.65a6.911 6.911 0 01-.512 1.602c-.233.523-.578 1-1.028 1.451-.14.145-.345.317-.612.511a5.488 5.488 0 01-1.023.567 7.27 7.27 0 01-1.5.468c-.585.122-1.262.183-2.035.188h-7.639V4.07a5.144 5.144 0 01.04-.728 3.49 3.49 0 01.222-.9c.122-.312.311-.59.572-.84.24-.211.517-.367.834-.472.323-.112.65-.19.99-.234.333-.044.65-.078.945-.094l.567-.034V.334H24.663v.433l.567.034c.295.016.612.05.951.094.333.045.662.122.984.234.317.105.595.26.834.472.26.25.456.528.572.84.117.31.195.611.223.9.033.29.044.534.038.728v15.877zM60.386 0l-7.271 17.545a27.357 27.357 0 01-.667 1.462c-.2.4-.373.734-.523 1-.15.261-.278.473-.378.64a7.534 7.534 0 01-.439.639 5.36 5.36 0 01-.7.75 4.695 4.695 0 01-2.363 1.112l-.634.1v.434h11.975v-.434l-.834-.066a6.41 6.41 0 01-1.051-.167 4.207 4.207 0 01-1.056-.412 2.475 2.475 0 01-.828-.723c-.179-.25-.3-.544-.373-.889a3.65 3.65 0 01-.056-1.05 3.39 3.39 0 01.228-.995l1.268-3.102h8.539l1.5 3.669c.09.205.162.428.228.672.067.25.1.49.106.729-.006.494-.1.889-.289 1.178a1.752 1.752 0 01-.711.656c-.15.089-.334.161-.545.217a5.928 5.928 0 01-.779.144c-.31.04-.695.073-1.145.106l-.5.033v.434h13.075v-.434l-.534-.033a5.258 5.258 0 01-1.167-.2 5.46 5.46 0 01-1.056-.412 3.59 3.59 0 01-.812-.555 3.614 3.614 0 01-.561-.762 12.818 12.818 0 01-.612-1.256c-.223-.517-.5-1.179-.828-1.985L63.22 0h-2.835zm4.003 13.509h-6.871l3.402-8.206h.067l3.402 8.206zM86.236 3.002h2.469c.194-.006.439.005.734.028.294.022.61.067.956.144.344.073.689.19 1.033.345.35.161.673.378.979.65.278.256.528.595.756 1.023.222.428.423.9.59 1.418.172.522.31 1.05.416 1.584.106.534.172 1.04.206 1.512h.433V.334h-21.28v9.372h.434c.033-.472.105-.978.211-1.512.1-.533.239-1.062.411-1.584.167-.517.367-.99.595-1.418.223-.428.473-.767.75-1.023.306-.272.629-.489.979-.65.345-.156.69-.272 1.034-.345.345-.077.662-.122.956-.144.295-.023.54-.034.734-.028H82.1v16.944c.006.195-.005.44-.039.729a3.541 3.541 0 01-.222.9 2.313 2.313 0 01-.573.84 2.468 2.468 0 01-.833.472c-.323.111-.65.183-.985.233-.338.045-.655.072-.95.095l-.567.033v.434h12.475v-.434l-.567-.033a16.61 16.61 0 01-.945-.095 5.427 5.427 0 01-.99-.233 2.47 2.47 0 01-.834-.473 2.39 2.39 0 01-.573-.839 3.569 3.569 0 01-.222-.9 5.23 5.23 0 01-.039-.729V3.002zM128.73.334h-10.006l-6.237 15.843h-.1L106.149.334H95.743v.433l.567.034c.294.016.611.05.95.094.334.045.662.122.984.234.317.105.595.26.834.472.261.25.456.528.573.84.116.31.194.611.222.9.033.29.044.534.039.728v15.21a8.65 8.65 0 01-.044.934c-.034.367-.112.74-.234 1.112-.117.372-.306.69-.556.956a2.54 2.54 0 01-.822.517 5.432 5.432 0 01-1.012.3c-.35.067-.662.106-.934.117l-.567.033v.434h11.24v-.434l-.567-.033a6.5 6.5 0 01-.934-.117 5.457 5.457 0 01-1.012-.3 2.54 2.54 0 01-.822-.517 2.208 2.208 0 01-.468-.723 3.903 3.903 0 01-.249-.856 7.43 7.43 0 01-.117-1.423V3.57h.1l7.938 20.113h1.535l7.938-20.113h.1v16.377c.006.195-.005.44-.039.729-.027.289-.1.589-.222.9a2.31 2.31 0 01-.573.84 2.468 2.468 0 01-.834.472c-.322.111-.65.183-.984.233-.339.045-.656.072-.95.095l-.567.033v.434h12.474v-.434l-.567-.033c-.294-.023-.611-.05-.945-.095a5.242 5.242 0 01-.983-.233 2.44 2.44 0 01-.84-.473 2.387 2.387 0 01-.573-.839 3.588 3.588 0 01-.222-.9 6.088 6.088 0 01-.039-.729V4.07a6.076 6.076 0 01.039-.728c.028-.289.106-.59.222-.9.123-.312.311-.59.573-.84.239-.211.517-.367.84-.472.316-.112.644-.19.983-.234.334-.044.651-.078.945-.094l.567-.034V.334zM140.972 0L133.7 17.545a27.27 27.27 0 01-.667 1.462c-.2.4-.372.734-.522 1-.15.261-.278.473-.378.64a7.465 7.465 0 01-.44.639 5.302 5.302 0 01-.7.75c-.278.25-.611.479-1.006.679-.389.2-.839.344-1.356.433l-.634.1v.434h11.974v-.434l-.834-.066a6.419 6.419 0 01-1.051-.167 4.215 4.215 0 01-1.056-.412 2.481 2.481 0 01-.828-.723c-.178-.25-.3-.544-.372-.889a3.633 3.633 0 01-.056-1.05c.028-.356.105-.69.228-.995l1.267-3.102h8.539l1.501 3.669c.089.205.161.428.228.672.067.25.1.49.106.729-.006.494-.101.889-.289 1.178a1.755 1.755 0 01-.712.656c-.15.089-.334.161-.545.217a5.924 5.924 0 01-.778.144c-.311.04-.695.073-1.145.106l-.501.033v.434h13.076v-.434l-.534-.033a5.265 5.265 0 01-1.168-.2 5.49 5.49 0 01-1.056-.412 3.601 3.601 0 01-.812-.555 3.637 3.637 0 01-.561-.762 12.967 12.967 0 01-.612-1.256c-.222-.517-.5-1.179-.828-1.985L143.807 0h-2.835zm4.002 13.509h-6.871l3.403-8.206h.066l3.402 8.206zM155.548.334v.433l.634.134a4.38 4.38 0 011.25.528c.428.255.84.55 1.234.89.395.338.746.677 1.051 1.016l7.705 8.573-6.504 7.571a6.76 6.76 0 01-.472.506c-.201.2-.423.412-.656.628a25.06 25.06 0 01-.679.6c-.211.184-.389.329-.528.434a9.195 9.195 0 01-1.701.99 9.447 9.447 0 01-1.801.611v.434h13.109v-.434l-.801-.066c-.628-.056-1.112-.128-1.457-.212-.339-.089-.567-.15-.678-.188-.239-.09-.461-.2-.672-.35a1.681 1.681 0 01-.523-.562c-.133-.228-.2-.512-.206-.857.006-.26.078-.533.212-.822.133-.29.283-.556.455-.8.173-.245.317-.44.434-.579l4.236-4.937 4.569 5.037c.239.256.462.523.673.795.211.278.389.556.523.845.133.284.2.573.205.862-.005.328-.094.6-.272.817a1.924 1.924 0 01-.695.517c-.305.15-.661.261-1.056.334a8.67 8.67 0 01-1.179.133l-.967.033v.434H185v-.434a6.029 6.029 0 01-2.568-.967 11.126 11.126 0 01-1.757-1.529 59.974 59.974 0 01-1.779-1.973l-7.105-7.939 4.504-5.203c.322-.372.661-.767 1.017-1.19.361-.422.745-.834 1.156-1.234.406-.4.851-.761 1.329-1.079.294-.188.617-.372.978-.544.362-.172.74-.317 1.134-.445a6.87 6.87 0 011.156-.278l.667-.1V.334h-13.408v.433l.834.067c.612.05 1.112.139 1.501.261.389.123.689.273.9.44.245.183.423.383.523.606.1.227.15.477.145.76a2.919 2.919 0 01-.479 1.585c-.133.2-.261.373-.389.517l-3.335 3.903-4.736-5.27c-.179-.2-.306-.378-.373-.534-.067-.155-.1-.3-.095-.434a1.435 1.435 0 01.195-.75c.134-.245.378-.461.739-.65.173-.079.373-.15.606-.212.234-.06.473-.11.712-.15a8.32 8.32 0 01.65-.072l.768-.067V.334h-12.942zM.48 34.675a3.504 3.504 0 011.022-.431 2.6 2.6 0 01.588-.072c.276 0 .518.048.724.141a1.1 1.1 0 01.483.413c.114.183.173.406.175.669a1.165 1.165 0 01-.14.554c-.092.17-.222.32-.387.449a1.85 1.85 0 01-.577.302 2.316 2.316 0 01-.712.11H1.21v.755h.457c.199 0 .397.013.594.043.2.029.389.078.568.147.177.069.337.16.476.274.139.114.25.255.329.422.082.168.122.368.124.599 0 .283-.069.535-.204.753a1.38 1.38 0 01-.596.518c-.263.124-.58.189-.96.191a3.34 3.34 0 01-.64-.069 3.996 3.996 0 01-.599-.171 3.395 3.395 0 01-.497-.229L0 40.82c.3.175.622.304.967.385a4.513 4.513 0 001.873.037c.272-.053.525-.135.762-.247.238-.112.445-.257.626-.432a1.89 1.89 0 00.424-.632 2.21 2.21 0 00.156-.847 1.921 1.921 0 00-.255-.967 1.845 1.845 0 00-.666-.659 2.43 2.43 0 00-.963-.305v-.022c.3-.07.569-.195.807-.37.238-.175.429-.392.567-.651.14-.258.21-.546.214-.864-.004-.398-.1-.737-.29-1.017a1.814 1.814 0 00-.792-.643 2.947 2.947 0 00-1.18-.224c-.42.001-.8.057-1.137.16a3.538 3.538 0 00-.896.422l.262.731zm6.19-1.177v3.245c.002.31-.004.63-.019.957a9.411 9.411 0 01-.086.95 4.153 4.153 0 01-.203.83 1.623 1.623 0 01-.366.598 1.577 1.577 0 01-.811.41l.126.8c.15-.001.297-.019.444-.054a2.5 2.5 0 00.744-.311c.213-.149.39-.337.533-.564.14-.228.253-.485.336-.77a5.7 5.7 0 00.187-.917c.042-.325.069-.656.08-.997.014-.34.02-.678.017-1.013v-2.33h2.536v6.865h1.005v-7.699H6.67zm10.223 5.278l.823 2.421h1.062l-2.627-7.699h-1.188l-2.627 7.699h1.028l.8-2.421h2.73zm-2.524-.777l.754-2.227c.08-.237.15-.47.211-.707.063-.234.122-.465.177-.687h.023c.055.22.116.45.179.682.063.231.137.471.22.722L16.7 38h-2.33zm7.001 3.198h1.005v-6.853h2.354v-.846h-5.7v.846h2.341v6.853zm7.322-7.836a3.52 3.52 0 00-1.424.288c-.434.19-.81.462-1.129.816-.32.356-.567.781-.743 1.276a4.979 4.979 0 00-.268 1.664c.002.584.086 1.115.253 1.595.168.478.404.89.71 1.238.307.346.673.612 1.095.8a3.46 3.46 0 001.403.285 3.73 3.73 0 001.127-.17 3.246 3.246 0 001.755-1.319c.22-.325.391-.702.51-1.131.12-.428.181-.908.183-1.435a4.92 4.92 0 00-.245-1.578 3.588 3.588 0 00-.699-1.236 3.086 3.086 0 00-1.094-.805 3.52 3.52 0 00-1.434-.288zm-.035.811a2.14 2.14 0 011.58.66c.197.206.36.443.49.709a3.7 3.7 0 01.291.853c.063.303.096.61.096.92 0 .44-.056.852-.164 1.237a3.272 3.272 0 01-.478 1.016 2.319 2.319 0 01-.775.692c-.306.165-.657.25-1.05.253a2.248 2.248 0 01-.863-.166 2.21 2.21 0 01-.687-.459 2.683 2.683 0 01-.503-.687 3.54 3.54 0 01-.31-.857 4.702 4.702 0 01-.005-1.94c.064-.314.163-.607.296-.877a2.7 2.7 0 01.495-.708c.198-.202.43-.36.695-.473a2.27 2.27 0 01.892-.173zm3.953-.674l2.558 5.209a.71.71 0 01.082.238.43.43 0 01-.047.23 4.028 4.028 0 01-.23.436 2.578 2.578 0 01-.323.427c-.123.133-.264.24-.422.323a1.175 1.175 0 01-.533.128c-.086 0-.158-.002-.22-.008a1.088 1.088 0 01-.157-.026l-.092.81c.063.023.14.04.229.052.09.011.201.017.33.017.342 0 .656-.08.942-.238.285-.16.552-.396.795-.71.137-.18.27-.38.398-.61.13-.228.253-.47.373-.726.12-.257.236-.52.347-.787.112-.268.219-.53.322-.79l1.622-3.975h-1.052l-1.21 3.267-.252.752c-.075.226-.148.438-.217.63h-.034a39.337 39.337 0 00-.548-1.347l-1.53-3.302H32.61zm11.97 6.66c-.135.064-.29.121-.464.17a4.51 4.51 0 01-1.169.15c-.623-.004-1.154-.13-1.592-.382a2.492 2.492 0 01-1.005-1.07c-.232-.46-.349-1.008-.35-1.644.001-.507.074-.956.215-1.35a2.76 2.76 0 01.609-.996c.264-.272.58-.477.948-.618.37-.141.778-.211 1.232-.211.322.002.613.032.873.091.262.059.484.135.668.228l.252-.811a2.347 2.347 0 00-.38-.15 4.18 4.18 0 00-.61-.134 5.725 5.725 0 00-.838-.058 4.5 4.5 0 00-1.635.291 3.657 3.657 0 00-1.27.823 3.66 3.66 0 00-.822 1.275 4.551 4.551 0 00-.293 1.654c.003.634.099 1.194.287 1.68.189.487.453.894.796 1.224.341.33.74.58 1.2.75.46.167.962.253 1.51.253.313-.002.6-.02.864-.054.262-.035.495-.081.692-.137a2.47 2.47 0 00.476-.175l-.194-.8zm2.912 1.039h1.005v-6.853h2.354v-.846h-5.7v.846h2.341v6.853zm7.322-7.836a3.523 3.523 0 00-1.424.288 3.28 3.28 0 00-1.129.816c-.32.356-.567.781-.743 1.276a4.981 4.981 0 00-.268 1.664c.002.584.086 1.115.253 1.595.168.478.404.89.71 1.238a3.17 3.17 0 001.095.8c.422.188.889.283 1.403.285.394 0 .77-.058 1.127-.17a3.249 3.249 0 001.755-1.319c.22-.325.39-.702.51-1.131.12-.428.181-.908.183-1.435a4.903 4.903 0 00-.246-1.578 3.583 3.583 0 00-.698-1.236 3.087 3.087 0 00-1.094-.805 3.521 3.521 0 00-1.434-.288zm-.035.811a2.135 2.135 0 011.58.66c.197.206.36.443.49.709a3.7 3.7 0 01.291.853c.063.303.096.61.096.92 0 .44-.055.852-.164 1.237a3.27 3.27 0 01-.478 1.016 2.319 2.319 0 01-.775.692c-.306.165-.657.25-1.05.253a2.247 2.247 0 01-.863-.166 2.212 2.212 0 01-.687-.459 2.691 2.691 0 01-.503-.687 3.543 3.543 0 01-.31-.857 4.715 4.715 0 01-.006-1.94 3.64 3.64 0 01.297-.877c.132-.269.297-.505.495-.708.198-.202.43-.36.695-.473a2.27 2.27 0 01.892-.173zm4.798 7.002c.166.023.378.044.637.063.26.017.562.027.905.028.628 0 1.161-.057 1.6-.175.439-.118.79-.298 1.05-.544.202-.183.364-.402.481-.659.119-.257.18-.552.182-.883a1.973 1.973 0 00-.145-.758 1.817 1.817 0 00-.375-.565 2.215 2.215 0 00-1.068-.596v-.034a2.19 2.19 0 00.693-.398c.194-.168.344-.362.449-.583.105-.22.158-.457.16-.71a1.77 1.77 0 00-.175-.795 1.585 1.585 0 00-.476-.564 1.998 1.998 0 00-.531-.318c-.2-.082-.43-.143-.688-.182a5.774 5.774 0 00-.883-.06 9.588 9.588 0 00-1.304.082 5.22 5.22 0 00-.512.09v7.56zm.993-6.899c.079-.019.187-.034.328-.048.14-.013.326-.02.552-.02.337-.002.632.041.881.127.252.086.448.22.587.408.139.184.21.424.211.721 0 .25-.067.472-.198.668a1.31 1.31 0 01-.567.46c-.245.115-.543.172-.89.174h-.904v-2.49zm0 3.233h.823c.274 0 .53.028.769.085.238.058.45.147.632.267.183.12.326.274.429.462.102.187.156.412.157.67a1.46 1.46 0 01-.163.706 1.257 1.257 0 01-.438.463c-.187.116-.396.2-.632.252a3.34 3.34 0 01-.743.076c-.176 0-.335-.004-.472-.01a3.377 3.377 0 01-.362-.036v-2.935zm10.372 2.65c-.135.064-.29.121-.464.17a4.507 4.507 0 01-1.169.15c-.623-.004-1.154-.13-1.592-.382a2.49 2.49 0 01-1.005-1.07c-.232-.46-.349-1.008-.35-1.644.001-.507.074-.956.215-1.35a2.76 2.76 0 01.609-.996 2.6 2.6 0 01.948-.618 3.421 3.421 0 011.232-.211c.322.002.613.032.873.091.261.059.484.135.669.228l.25-.811a2.324 2.324 0 00-.38-.15 4.168 4.168 0 00-.609-.134 5.724 5.724 0 00-.838-.058c-.6.002-1.144.099-1.635.291a3.657 3.657 0 00-1.27.823 3.66 3.66 0 00-.822 1.275 4.551 4.551 0 00-.293 1.654c.003.634.099 1.194.287 1.68.189.487.453.894.796 1.224.34.33.74.58 1.201.75.46.167.961.253 1.508.253a7.08 7.08 0 00.864-.054c.263-.035.496-.081.693-.137a2.48 2.48 0 00.476-.175l-.194-.8zm1.45-6.66v7.699h.994v-3.53h.32c.323 0 .602.042.834.124.23.084.428.2.59.352.162.15.299.332.411.541.114.21.214.442.3.697.073.204.146.411.218.622.072.214.148.42.228.625.08.202.168.392.263.569h1.063c-.11-.228-.21-.46-.302-.695a26.871 26.871 0 01-.266-.723c-.087-.248-.181-.501-.278-.764a5.502 5.502 0 00-.322-.725 2.64 2.64 0 00-.424-.594 2.065 2.065 0 00-.59-.432 2.652 2.652 0 00-.823-.236l2.913-3.53h-1.188l-2.639 3.416h-.308v-3.416h-.994zm6.19 0v7.699h1.063l2.41-3.838c.267-.424.522-.855.77-1.29.247-.437.468-.867.658-1.291l.034.011c-.026.322-.045.643-.059.965-.013.324-.02.663-.026 1.015-.004.354-.006.736-.006 1.15v3.278h.937v-7.699h-.994l-2.49 3.964c-.28.455-.539.894-.777 1.317-.238.421-.45.832-.64 1.23l-.034-.011c.023-.341.04-.686.053-1.032.014-.347.023-.703.031-1.07.006-.368.008-.752.008-1.154v-3.244h-.937zm11.492 3.267h-2.981v-2.433h3.164v-.834h-4.17v7.699h4.341v-.834h-3.335v-2.775h2.981v-.823zm64.586-3.267v7.699h1.005v-3.61h3.724v3.61h1.004v-7.699h-1.004v3.221h-3.724v-3.221h-1.005zm10.565-.136a3.52 3.52 0 00-1.424.287c-.434.19-.809.462-1.129.816-.32.356-.567.781-.742 1.276a4.954 4.954 0 00-.269 1.664 4.85 4.85 0 00.254 1.595c.167.478.403.89.71 1.238a3.16 3.16 0 001.094.8 3.46 3.46 0 001.403.285 3.74 3.74 0 001.127-.17 3.257 3.257 0 001.755-1.319c.22-.325.391-.702.51-1.131a5.4 5.4 0 00.183-1.435 4.923 4.923 0 00-.245-1.578 3.584 3.584 0 00-.699-1.236 3.088 3.088 0 00-1.094-.805 3.521 3.521 0 00-1.434-.288zm-.034.81a2.14 2.14 0 011.58.66c.196.206.36.443.49.709.129.267.226.552.29.853.063.303.096.61.096.92 0 .44-.055.852-.164 1.237a3.272 3.272 0 01-.478 1.016 2.31 2.31 0 01-.775.692c-.306.165-.656.25-1.051.253a2.246 2.246 0 01-.862-.166 2.214 2.214 0 01-.687-.459 2.688 2.688 0 01-.503-.687 3.54 3.54 0 01-.31-.857 4.695 4.695 0 01-.005-1.94c.064-.314.163-.607.296-.877.132-.269.297-.505.495-.708.198-.202.43-.36.695-.473.265-.114.561-.17.893-.173zm4.18-.674l2.719 3.541c-.299.038-.556.11-.775.22a1.934 1.934 0 00-.564.418 2.822 2.822 0 00-.411.598 5.897 5.897 0 00-.318.752c-.081.24-.161.482-.239.725-.077.244-.159.486-.244.727a8.939 8.939 0 01-.293.718h1.016c.084-.173.16-.366.233-.575.07-.21.139-.42.203-.632.065-.213.128-.413.192-.598.09-.264.187-.5.29-.714a2.12 2.12 0 01.373-.542c.145-.15.323-.267.537-.347.211-.08.47-.122.776-.122h.355v3.53h.959v-3.53h.343c.306 0 .565.042.778.122.212.08.39.196.535.347.145.15.268.33.373.542.103.214.201.45.29.714.061.185.122.385.186.598.063.213.131.422.202.632.072.21.153.402.24.575h1.016a8.819 8.819 0 01-.281-.718 22.257 22.257 0 01-.236-.73c-.075-.246-.154-.49-.237-.734a5.573 5.573 0 00-.319-.756 2.764 2.764 0 00-.417-.601 1.932 1.932 0 00-.571-.417 2.331 2.331 0 00-.782-.202l2.729-3.541h-1.153l-2.388 3.416h-.308v-3.416h-.959v3.416h-.309l-2.387-3.416h-1.154zm9.766 0v7.699h1.062l2.41-3.838c.267-.424.522-.855.769-1.29.248-.437.469-.867.659-1.291l.034.011c-.026.322-.045.643-.059.965-.013.324-.02.663-.026 1.015-.004.354-.006.736-.006 1.15v3.278h.937v-7.699h-.994l-2.49 3.964c-.28.455-.539.894-.777 1.317-.238.421-.451.832-.64 1.23l-.034-.011c.023-.341.04-.686.054-1.032.013-.347.022-.703.03-1.07.006-.368.008-.752.008-1.154v-3.244h-.937z" fill="#1F1C21"/></svg>