<svg width="18" height="18" fill="none" xmlns="http://www.w3.org/2000/svg"><g clip-path="url(#clip0_2_201)"><path d="M13.21 11.619a7.264 7.264 0 001.415-4.306A7.32 7.32 0 007.312 0C3.28 0 0 3.28 0 7.313c0 4.032 3.28 7.312 7.312 7.312 1.611 0 3.097-.53 4.307-1.416L16.409 18 18 16.41l-4.79-4.791zm-5.898.756A5.068 5.068 0 012.25 7.313 5.068 5.068 0 017.312 2.25a5.068 5.068 0 015.063 5.063 5.068 5.068 0 01-5.063 5.062z" fill="#373334"/></g><defs><clipPath id="clip0_2_201"><path fill="#fff" d="M0 0h18v18H0z"/></clipPath></defs></svg>