<svg xmlns="http://www.w3.org/2000/svg" xmlns:xlink="http://www.w3.org/1999/xlink">

    <symbol id="fb" viewBox="0 0 16 16" fill="none">
        <g clip-path="url(#clip0_2_191)">
            <path d="M16 8C16 3.58172 12.4183 0 8 0C3.58172 0 0 3.58172 0 8C0 11.993 2.92547 15.3027 6.75 15.9028V10.3125H4.71875V8H6.75V6.2375C6.75 4.2325 7.94438 3.125 9.77172 3.125C10.6467 3.125 11.5625 3.28125 11.5625 3.28125V5.25H10.5538C9.56 5.25 9.25 5.86672 9.25 6.5V8H11.4688L11.1141 10.3125H9.25V15.9028C13.0745 15.3027 16 11.993 16 8Z" fill="#373334"/>
        </g>
        <defs>
            <clipPath id="clip0_2_191">
                <rect width="16" height="16" fill="white"/>
            </clipPath>
        </defs>
    </symbol>

    <symbol id="ig" viewBox="0 0 15 15" fill="none">
        <path d="M14.9998 7.49942C14.9998 8.58252 14.9998 9.66563 14.9998 10.7487C14.9923 11.5973 14.7281 12.4236 14.2419 13.1191C13.7556 13.8146 13.0702 14.3467 12.2758 14.6452C11.6 14.8974 10.882 15.0172 10.1609 14.998C8.282 14.998 6.4031 14.998 4.5242 14.998C3.61496 15.0188 2.7208 14.7634 1.95981 14.2654C1.04034 13.6963 0.379166 12.7909 0.116869 11.742C0.0415001 11.4215 0.0022988 11.0936 0 10.7645C0 8.62971 0 6.49497 0 4.34898C0 3.2479 0.307906 2.25917 1.09228 1.46145C1.83327 0.661796 2.83969 0.158671 3.92412 0.0457779C4.59837 -0.0148939 5.27261 0.00308295 5.93337 0.000835844C7.36727 0.000835844 8.80342 0.000835844 10.2396 0.000835844C11.2127 0.000835844 12.1477 0.158133 12.9793 0.697438C13.9015 1.24813 14.5755 2.13367 14.8604 3.16925C14.9465 3.5224 14.991 3.88439 14.993 4.24786C15.0087 5.33097 14.993 6.41407 14.993 7.49717L14.9998 7.49942ZM1.12375 7.49942C1.12375 8.59376 1.12375 9.68585 1.12375 10.7802C1.12375 12.0498 1.79799 12.9104 2.87679 13.4992C3.40132 13.7638 3.98428 13.8913 4.5714 13.87C6.50648 13.87 8.44157 13.87 10.3767 13.87C11.0491 13.8816 11.7122 13.7115 12.296 13.3778C13.3119 12.7891 13.8693 11.9217 13.8693 10.742C13.8827 8.55107 13.8872 6.36014 13.8693 4.16697C13.8693 2.87039 13.1343 2.01424 12.0263 1.44572C11.5279 1.20929 10.9797 1.09674 10.4284 1.11765C8.5045 1.11765 6.58065 1.11765 4.65455 1.11765C4.03801 1.1015 3.42688 1.23651 2.87454 1.51089C1.79799 2.07042 1.14847 2.94229 1.12375 4.18944C1.09678 5.29276 1.12375 6.39609 1.12375 7.49942Z" fill="#373334"/>
        <path d="M1.12375 7.49942V10.7802C1.12375 12.0498 1.79799 12.9104 2.87679 13.4992C3.40132 13.7638 3.98428 13.8913 4.5714 13.87H10.3767C11.0491 13.8816 11.7122 13.7115 12.296 13.3778C13.3119 12.7891 13.8693 11.9217 13.8693 10.742C13.8827 8.55107 13.8872 6.36014 13.8693 4.16697C13.8693 2.87039 13.1343 2.01424 12.0263 1.44572C11.5279 1.20929 10.9797 1.09674 10.4284 1.11765H4.65455C4.03801 1.1015 3.42688 1.23651 2.87454 1.51089C1.79799 2.07042 1.14847 2.94229 1.12375 4.18944C1.09678 5.29276 1.12375 6.39609 1.12375 7.49942Z" fill="#373334"/>
        <path d="M7.50635 10.7035C6.82069 10.6933 6.15337 10.4807 5.5883 10.0922C5.02323 9.70381 4.58565 9.157 4.33061 8.52058C4.07556 7.88415 4.01444 7.18654 4.15492 6.51547C4.29541 5.8444 4.63123 5.22985 5.12014 4.74911C5.60906 4.26838 6.22923 3.94293 6.90267 3.81369C7.57611 3.68446 8.27273 3.75721 8.90491 4.0228C9.5371 4.28839 10.0766 4.73496 10.4556 5.30634C10.8346 5.87772 11.0362 6.54839 11.0349 7.234C11.0242 8.161 10.6472 9.04613 9.9861 9.69616C9.32501 10.3462 8.43355 10.7083 7.50635 10.7035ZM5.10828 7.22726C5.09935 7.70462 5.23277 8.17383 5.49153 8.57509C5.75029 8.97636 6.12267 9.29152 6.56123 9.48042C6.99979 9.66931 7.48467 9.72339 7.95408 9.63575C8.42349 9.54811 8.85618 9.32273 9.19701 8.98833C9.53784 8.65393 9.77138 8.22565 9.86788 7.75805C9.96437 7.29046 9.91944 6.80473 9.73882 6.36276C9.55821 5.92079 9.25007 5.54259 8.85369 5.27635C8.4573 5.01011 7.99061 4.86788 7.51309 4.8678C6.8823 4.86536 6.27601 5.11175 5.82578 5.55348C5.37556 5.99521 5.11774 6.59665 5.10828 7.22726Z" fill="white"/>
        <path d="M12.1836 3.45884C12.1783 3.60398 12.1304 3.74435 12.0458 3.86242C11.9612 3.98049 11.8437 4.07102 11.7079 4.12273C11.5722 4.17443 11.4242 4.18501 11.2825 4.15315C11.1407 4.12128 11.0115 4.04839 10.911 3.94356C10.8104 3.83873 10.743 3.70661 10.7171 3.5637C10.6912 3.42078 10.708 3.27341 10.7653 3.13997C10.8227 3.00653 10.9181 2.89293 11.0396 2.81337C11.1611 2.7338 11.3034 2.69179 11.4487 2.69258C11.6466 2.70015 11.8339 2.78428 11.971 2.92723C12.1081 3.07018 12.1843 3.26078 12.1836 3.45884Z" fill="white"/>

    </symbol>

    <symbol id="ok" viewBox="0 0 16 16" fill="none">
       <g clip-path="url(#clip0_2_193)">
        <circle cx="8" cy="8" r="8" fill="#373334"/>
        <path d="M9.7693 12.659L9.30963 12.7903C8.40512 13.1979 7.39775 13.3205 6.42128 13.1416C6.24049 13.1179 6.07262 13.0348 5.94405 12.9053C5.85376 12.7975 5.79069 12.6696 5.76018 12.5323C5.72966 12.3951 5.73259 12.2526 5.76873 12.1168C5.81015 11.9258 5.91988 11.7566 6.07727 11.6411C6.23466 11.5255 6.42888 11.4715 6.62343 11.4892C6.87844 11.4883 7.12189 11.5305 7.3769 11.5296C7.93038 11.5016 8.47357 11.3699 8.97824 11.1413C9.74153 10.8229 10.4051 10.3051 10.8996 9.642C11.0618 9.40693 11.2032 9.1581 11.3221 8.89834C11.426 8.66182 11.6004 8.46326 11.8214 8.32975C11.9581 8.25382 12.114 8.21961 12.27 8.23134C12.426 8.24307 12.5752 8.30023 12.6992 8.39576C12.7872 8.44724 12.8641 8.51566 12.9255 8.59706C12.9868 8.67847 13.0315 8.77123 13.0568 8.86998C13.0821 8.96872 13.0876 9.07149 13.073 9.17233C13.0583 9.27316 13.0238 9.37006 12.9714 9.4574C12.8058 9.93982 12.5601 10.3907 12.2445 10.7911C11.9302 11.1724 11.574 11.517 11.1826 11.8186L10.9088 11.9767L11.049 12.0298L14.391 12.9279C14.5582 12.9625 14.7097 13.0504 14.8231 13.1782C14.9364 13.3061 15.0054 13.4672 15.0197 13.6375C15.0413 13.8084 15.0133 13.982 14.9389 14.1373C14.8646 14.2926 14.747 14.4231 14.6004 14.5133C14.5143 14.5621 14.4191 14.5929 14.3207 14.6036C14.2222 14.6143 14.1226 14.6048 14.0279 14.5757L11.6237 13.9528L11.3577 13.8504C11.2804 13.8219 11.2439 13.843 11.2208 13.9294L10.8628 15.2696C10.7396 15.7308 10.6255 16.1866 10.4514 16.665C10.3972 16.8541 10.2718 17.0148 10.1016 17.1131C9.93131 17.2114 9.7295 17.2396 9.53863 17.192C9.34154 17.1539 9.16256 17.0515 9.02974 16.9008C8.94991 16.8097 8.89365 16.7004 8.86591 16.5825C8.83817 16.4646 8.83981 16.3418 8.87068 16.2248L9.35193 14.4234L9.74905 12.7926L9.7693 12.659Z" fill="#F2F2F2"/>
        <path d="M5.52697 4.00545C6.1178 3.66194 6.79757 3.50212 7.47988 3.54628C8.16219 3.59044 8.81623 3.83659 9.35887 4.25345C9.90152 4.67031 10.3083 5.23906 10.5274 5.88741C10.7466 6.53575 10.7683 7.23443 10.5897 7.89463C10.4112 8.55483 10.0404 9.14676 9.52462 9.59517C9.00882 10.0436 8.37125 10.3282 7.69294 10.413C7.01463 10.4977 6.32621 10.3786 5.71518 10.071C5.10414 9.76328 4.59808 9.28087 4.26131 8.68503C3.81167 7.89509 3.69239 6.9596 3.92953 6.08283C4.16666 5.20606 4.74095 4.45924 5.52697 4.00545ZM5.7635 7.82993C5.92879 8.12443 6.17746 8.36347 6.47816 8.51689C6.77885 8.67031 7.1181 8.73124 7.45311 8.69201C7.78813 8.65277 8.1039 8.51512 8.36061 8.29641C8.61732 8.07771 8.80347 7.78774 8.89558 7.46309C8.98769 7.13844 8.98163 6.79364 8.87818 6.47218C8.77472 6.15072 8.5785 5.867 8.31426 5.6568C8.05001 5.44659 7.72959 5.31932 7.39339 5.29104C7.05719 5.26276 6.72027 5.33473 6.42514 5.49788C6.2281 5.6068 6.05458 5.75367 5.91456 5.93004C5.77455 6.10641 5.67081 6.30879 5.60932 6.52553C5.54782 6.74228 5.52979 6.96911 5.55625 7.19298C5.58271 7.41684 5.65314 7.63331 5.7635 7.82993Z" fill="#F2F2F2"/>
        </g>
        <defs>
        <clipPath id="clip0_2_193">
        <rect width="16" height="16" fill="white"/>
        </clipPath>
        </defs>
    </symbol>

    <symbol id="vk" viewBox="0 0 19 18" fill="none">
       <path d="M10.6961 6.78914C10.6961 7.24463 10.6777 7.67395 10.6751 8.09803C10.6694 8.32934 10.6968 8.56028 10.7565 8.78388C10.7927 8.92661 10.8737 9.05409 10.9877 9.14775C11.0159 9.16981 11.0489 9.18488 11.0841 9.19171C11.1192 9.19853 11.1555 9.19693 11.19 9.18702C11.3127 9.14796 11.425 9.08174 11.5184 8.9933C11.743 8.78701 11.9455 8.55803 12.1226 8.31007C12.7508 7.44347 13.2688 6.50263 13.6647 5.50905C13.7357 5.34152 13.804 5.1766 13.8696 5.00644C13.9166 4.87639 14.0102 4.76824 14.1324 4.70278C14.2088 4.67473 14.29 4.6614 14.3714 4.66351C14.4082 4.66351 14.4476 4.66351 14.487 4.66351H17.1141C17.2928 4.66351 17.4714 4.66351 17.6396 4.66351C17.7299 4.67511 17.8183 4.69889 17.9023 4.73419C17.9704 4.754 18.0299 4.79594 18.0713 4.85334C18.1127 4.91075 18.1337 4.9803 18.1308 5.05094C18.1308 5.23066 18.0951 5.4086 18.0258 5.5745C17.8496 5.99947 17.6276 6.40411 17.3637 6.78129C16.8725 7.52997 16.3129 8.22891 15.7874 8.94357C15.6114 9.18178 15.4459 9.42785 15.2883 9.67654C15.195 9.81417 15.1523 9.97971 15.1674 10.1451C15.1899 10.3053 15.2636 10.4541 15.3776 10.5692C15.5694 10.7734 15.7638 10.975 15.9687 11.1661C16.5177 11.6544 17.0329 12.1791 17.5108 12.7367C17.7336 13.0014 17.9258 13.2903 18.0836 13.598C18.1223 13.681 18.1489 13.7692 18.1624 13.8597C18.1861 13.9599 18.1767 14.065 18.1355 14.1594C18.0943 14.2538 18.0235 14.3323 17.9338 14.3833C17.7582 14.4938 17.5556 14.5545 17.348 14.5587C16.573 14.5796 15.798 14.5744 15.0256 14.6189C14.5288 14.643 14.0417 14.4762 13.6647 14.1529C13.38 13.9197 13.1163 13.6622 12.8766 13.3833C12.6139 13.098 12.3696 12.81 12.0885 12.5378C11.969 12.4209 11.8337 12.3213 11.6865 12.242C11.5921 12.1844 11.4802 12.1622 11.3709 12.1795C11.2616 12.1968 11.162 12.2523 11.0901 12.3362C10.96 12.4924 10.8691 12.6773 10.8248 12.8755C10.7405 13.1775 10.6938 13.4887 10.6856 13.8021C10.6816 13.8802 10.6737 13.9579 10.6619 14.0351C10.6471 14.1341 10.6049 14.2271 10.5399 14.3034C10.4749 14.3797 10.3898 14.4364 10.2941 14.4671C10.1668 14.5202 10.0302 14.5477 9.89218 14.5482C9.54539 14.5482 9.19861 14.5482 8.84132 14.5482C8.22921 14.5412 7.6233 14.425 7.05225 14.2053C6.02106 13.8182 5.0984 13.1897 4.36207 12.3728C3.63138 11.5718 2.98031 10.7022 2.418 9.77602C1.52735 8.3372 0.737343 6.8389 0.0535866 5.29178C0.00895893 5.18973 -0.00824345 5.07786 0.00367123 4.96717C0.00619388 4.92579 0.0200053 4.88588 0.0436163 4.85174C0.0672272 4.81761 0.099742 4.79054 0.137655 4.77346C0.267196 4.70828 0.410248 4.67421 0.555368 4.67398H3.16673C3.32159 4.68444 3.47006 4.73948 3.59412 4.83242C3.71817 4.92536 3.81247 5.05221 3.86555 5.19754C4.09111 5.79172 4.36251 6.36761 4.67733 6.92003C5.01816 7.535 5.40179 8.12544 5.82538 8.68702C5.96908 8.89475 6.14668 9.07703 6.35081 9.22628C6.41583 9.28043 6.49567 9.31388 6.57998 9.32228C6.6643 9.33068 6.7492 9.31365 6.82369 9.2734C6.90514 9.22484 6.96871 9.1514 7.00496 9.06398C7.10038 8.84556 7.15897 8.61294 7.17835 8.37551C7.2357 7.82243 7.24713 7.26557 7.21251 6.71061C7.20611 6.37937 7.17184 6.04924 7.11005 5.72371C7.09429 5.64256 7.06539 5.56403 7.04962 5.48287C7.03067 5.40741 6.99548 5.33695 6.94649 5.27638C6.8975 5.21581 6.83588 5.16658 6.7659 5.13209C6.58557 5.0204 6.38115 4.9531 6.16954 4.93576C6.10911 4.93576 6.0881 4.90435 6.11437 4.85199C6.13686 4.79988 6.16696 4.75136 6.20369 4.70802C6.39582 4.49981 6.65524 4.36546 6.93666 4.32844C7.34437 4.25872 7.75783 4.22804 8.17141 4.23682C8.63116 4.23682 9.09353 4.23682 9.5559 4.26561C9.75654 4.27829 9.95542 4.31073 10.1496 4.36247C10.3043 4.3931 10.444 4.47494 10.5461 4.59471C10.6481 4.71447 10.7066 4.86511 10.7118 5.02215C10.7342 5.27455 10.7421 5.52801 10.7355 5.7813C10.7302 6.12423 10.7092 6.46977 10.6961 6.78914Z" fill="#373334"/>
    </symbol>

    <symbol id="yt" viewBox="0 0 15 16" fill="none">
      <path d="M14.8506 4.80001C14.8506 4.80001 14.7041 3.69689 14.2529 3.21251C13.6816 2.57501 13.043 2.57189 12.75 2.53439C10.6523 2.37189 7.50293 2.37189 7.50293 2.37189H7.49707C7.49707 2.37189 4.34766 2.37189 2.25 2.53439C1.95703 2.57189 1.31836 2.57501 0.74707 3.21251C0.295898 3.69689 0.152344 4.80001 0.152344 4.80001C0.152344 4.80001 0 6.09689 0 7.39064V8.60314C0 9.89689 0.149414 11.1938 0.149414 11.1938C0.149414 11.1938 0.295898 12.2969 0.744141 12.7813C1.31543 13.4188 2.06543 13.3969 2.39941 13.4656C3.60059 13.5875 7.5 13.625 7.5 13.625C7.5 13.625 10.6523 13.6188 12.75 13.4594C13.043 13.4219 13.6816 13.4188 14.2529 12.7813C14.7041 12.2969 14.8506 11.1938 14.8506 11.1938C14.8506 11.1938 15 9.90001 15 8.60314V7.39064C15 6.09689 14.8506 4.80001 14.8506 4.80001ZM5.9502 10.075V5.57814L10.002 7.83439L5.9502 10.075Z" fill="#373334"/>
    </symbol>

    <symbol id="arrow-custom" viewBox="0 0 14 12">
        <path d="M11.6825 5.44559L6.03684 12H8.42825L14 5.49487L8.94598 0L6.57922 0L11.6825 5.44559Z" />
        <path d="M12.0063 4.72705L-6.10352e-05 4.72705L-6.09522e-05 6.62438L12.0063 6.62438L12.0063 4.72705Z"/>
    </symbol>

    <symbol id="phone" viewBox="0 0 23 24" fill="none">
        <path d="M22.1494 17.7016L19.3231 14.718C18.5439 13.8955 17.276 13.8955 16.4969 14.718L15.2122 16.0742C14.6219 16.6973 13.6614 16.6971 13.0713 16.0744L7.50303 10.1912C6.91135 9.56663 6.91126 8.55568 7.50303 7.93097C7.70995 7.71254 8.30412 7.0853 8.78768 6.57483C9.56346 5.75593 9.5743 4.42163 8.78693 3.59053L5.96142 0.617157C5.18222 -0.205359 3.91435 -0.205359 3.13724 0.615001C2.55573 1.22353 2.36817 1.41984 2.10743 1.6927C-0.702453 4.65891 -0.702453 9.4853 2.10729 12.4514L10.93 21.77C13.7464 24.7432 18.3049 24.7435 21.1216 21.77L22.1494 20.6851C22.9286 19.8625 22.9286 18.5241 22.1494 17.7016ZM4.07727 1.61166C4.33699 1.33749 4.75954 1.33744 5.0201 1.61241L7.84561 4.58578C8.10595 4.86061 8.10595 5.30541 7.84561 5.58029L7.37453 6.07754L3.60863 2.10206L4.07727 1.61166ZM11.8722 20.7756L3.0495 11.457C0.875572 9.16205 0.756082 5.55854 2.68201 3.11292L6.43698 7.07686C5.45033 8.2576 5.49145 10.0568 6.56074 11.1856L12.1288 17.0685C12.1288 17.0685 12.1289 17.0686 12.129 17.0687C13.1971 18.1963 14.9014 18.2425 16.0212 17.1995L19.7763 21.1636C17.467 23.1932 14.0611 23.0863 11.8722 20.7756ZM21.2074 19.6906L20.7363 20.1879L16.9679 16.2098L17.4389 15.7125C17.6987 15.4383 18.1213 15.4383 18.3811 15.7125L21.2073 18.6961C21.4671 18.9703 21.4671 19.4164 21.2074 19.6906Z" fill="white"/>
    </symbol>

    <symbol id="pa" viewBox="0 0 23 28" fill="none">
        <path d="M11.4024 14.9052C11.4304 14.9052 11.4584 14.9052 11.492 14.9052C11.5032 14.9052 11.5144 14.9052 11.5256 14.9052C11.5424 14.9052 11.5648 14.9052 11.5816 14.9052C13.2222 14.8766 14.5493 14.2866 15.5292 13.1581C17.6849 10.672 17.3266 6.41005 17.2874 6.00333C17.1474 2.95011 15.7364 1.48938 14.5717 0.8077C13.7038 0.297875 12.6903 0.0229135 11.5592 0H11.52C11.5144 0 11.5032 0 11.4976 0H11.464C10.8425 0 9.62179 0.103111 8.45151 0.784787C7.27563 1.46646 5.84218 2.9272 5.7022 6.00333C5.663 6.41005 5.30464 10.672 7.46041 13.1581C8.43471 14.2866 9.76177 14.8766 11.4024 14.9052ZM7.19724 6.14654C7.19724 6.12936 7.20284 6.11217 7.20284 6.10072C7.38762 1.99347 10.2377 1.55239 11.4584 1.55239H11.4808C11.492 1.55239 11.5088 1.55239 11.5256 1.55239C13.0374 1.58676 15.6076 2.21688 15.7811 6.10072C15.7811 6.1179 15.7811 6.13509 15.7867 6.14654C15.7923 6.18664 16.1843 10.0819 14.4037 12.1327C13.6982 12.9461 12.7575 13.3471 11.52 13.3586C11.5088 13.3586 11.5032 13.3586 11.492 13.3586C11.4808 13.3586 11.4752 13.3586 11.464 13.3586C10.2321 13.3471 9.28582 12.9461 8.5859 12.1327C6.81088 10.0934 7.19164 6.18091 7.19724 6.14654Z" fill="white"/>
        <path d="M22.9984 21.974C22.9984 21.9683 22.9984 21.9626 22.9984 21.9568C22.9984 21.911 22.9928 21.8652 22.9928 21.8136C22.9592 20.6794 22.8864 18.0272 20.4563 17.1794C20.4395 17.1737 20.4171 17.1679 20.4003 17.1622C17.8749 16.5034 15.7752 15.0141 15.7528 14.9969C15.4112 14.7506 14.9408 14.8365 14.7001 15.1859C14.4593 15.5353 14.5433 16.0165 14.8848 16.2628C14.98 16.3316 17.2086 17.9183 19.9971 18.6516C21.3018 19.127 21.4474 20.5534 21.4866 21.8595C21.4866 21.911 21.4866 21.9568 21.4922 22.0027C21.4978 22.5182 21.4642 23.3145 21.3746 23.7727C20.4675 24.2997 16.9118 26.1214 11.5028 26.1214C6.11612 26.1214 2.53807 24.294 1.62536 23.767C1.53577 23.3087 1.49658 22.5125 1.50777 21.9969C1.50777 21.9511 1.51337 21.9053 1.51337 21.8537C1.55257 20.5477 1.69815 19.1213 3.00283 18.6458C5.79135 17.9126 8.01993 16.3201 8.11512 16.2571C8.45668 16.0108 8.54067 15.5296 8.2999 15.1802C8.05912 14.8308 7.58877 14.7448 7.2472 14.9911C7.2248 15.0083 5.13621 16.4977 2.59967 17.1565C2.57727 17.1622 2.56047 17.1679 2.54367 17.1737C0.113513 18.0272 0.0407202 20.6794 0.00712354 21.8079C0.00712354 21.8595 0.00712341 21.9053 0.00152397 21.9511C0.00152397 21.9568 0.00152397 21.9626 0.00152397 21.9683C-0.00407547 22.2662 -0.0096748 23.7956 0.287096 24.5633C0.34309 24.7122 0.44388 24.8382 0.578267 24.9241C0.74625 25.0387 4.77225 27.6623 11.5084 27.6623C18.2445 27.6623 22.2705 25.033 22.4385 24.9241C22.5673 24.8382 22.6737 24.7122 22.7297 24.5633C23.0096 23.8014 23.004 22.2719 22.9984 21.974Z" fill="white"/>
    </symbol>

    <symbol id="favorite" viewBox="0 0 28 27" fill="none">
        <path d="M20.1004 0C17.7169 0 15.4856 1.07339 14 2.87184C12.5144 1.07333 10.2832 0 7.89957 0C3.54375 0 0 3.52462 0 7.85705C0 11.2495 2.03385 15.1734 6.04492 19.5198C9.13175 22.8646 12.4897 25.4544 13.4454 26.1685L13.9998 26.5828L14.5543 26.1686C15.5099 25.4545 18.868 22.8647 21.9549 19.52C25.9661 15.1736 28 11.2496 28 7.85705C28 3.52462 24.4562 0 20.1004 0ZM20.5948 18.2782C18.0558 21.0293 15.3242 23.2533 13.9998 24.2783C12.6755 23.2533 9.944 21.0293 7.40498 18.2781C3.76837 14.3375 1.84615 10.734 1.84615 7.85705C1.84615 4.53717 4.56172 1.83622 7.89957 1.83622C10.0961 1.83622 12.1243 3.02694 13.1927 4.94377L14 6.3923L14.8073 4.94377C15.8756 3.027 17.9038 1.83622 20.1004 1.83622C23.4383 1.83622 26.1538 4.53711 26.1538 7.85705C26.1538 10.7341 24.2316 14.3377 20.5948 18.2782Z" fill="white"/>
    </symbol>

    <symbol id="basket" viewBox="0 0 28 30" fill="none">
        <path d="M6.21007 6.95988H25.7121C26.3649 6.95988 26.8427 7.57518 26.681 8.20761L25.141 14.2302C24.8014 15.5581 23.6051 16.487 22.2345 16.487H7.8608M0 1.49957H3.83163C4.81484 1.49957 5.65222 2.21422 5.80677 3.18521L8.36735 19.2733C8.52189 20.2443 9.35928 20.959 10.3425 20.959H24.5639" stroke="white" stroke-width="1.5"/>
        <path d="M13.6374 26.5538C13.6374 27.6379 12.7973 28.4692 11.8186 28.4692C10.8399 28.4692 9.99976 27.6379 9.99976 26.5538C9.99976 25.4697 10.8399 24.6385 11.8186 24.6385C12.7973 24.6385 13.6374 25.4697 13.6374 26.5538Z" stroke="white" stroke-width="1.5"/>
        <path d="M24.94 26.5538C24.94 27.6379 24.0999 28.4692 23.1212 28.4692C22.1425 28.4692 21.3024 27.6379 21.3024 26.5538C21.3024 25.4697 22.1425 24.6385 23.1212 24.6385C24.0999 24.6385 24.94 25.4697 24.94 26.5538Z" stroke="white" stroke-width="1.5"/>
    </symbol>

</svg>