<?xml version="1.0" encoding="UTF-8"?><!DOCTYPE svg PUBLIC "-//W3C//DTD SVG 1.1//EN" "http://www.w3.org/Graphics/SVG/1.1/DTD/svg11.dtd"><svg xmlns="http://www.w3.org/2000/svg" xmlns:xlink="http://www.w3.org/1999/xlink"><defs><clipPath><path d="M0 0h16v16H0z"/></clipPath><clipPath><path d="M0 0h16v16H0z"/></clipPath></defs><symbol id="arrow-custum" viewBox="0 0 14 12"><path d="M11.682 5.446L6.037 12h2.391L14 5.495 8.946 0H6.579l5.103 5.446z"/><path d="M12.006 4.727H0v1.897h12.006V4.727z"/></symbol><symbol id="basket" viewBox="0 0 28 30"><path stroke-width="1.5" d="M6.21 6.96h19.502a1 1 0 01.969 1.248l-1.54 6.022a3 3 0 01-2.906 2.257H7.86M0 1.5h3.832a2 2 0 011.975 1.685l2.56 16.088a2 2 0 001.975 1.686h14.222M13.637 26.554c0 1.084-.84 1.915-1.818 1.915-.98 0-1.82-.831-1.82-1.915s.84-1.915 1.82-1.915c.978 0 1.818.83 1.818 1.915zM24.94 26.554c0 1.084-.84 1.915-1.819 1.915s-1.819-.831-1.819-1.915.84-1.915 1.82-1.915c.978 0 1.818.83 1.818 1.915z"/></symbol><symbol id="favorite" viewBox="0 0 28 27"><path d="M20.1 0A7.917 7.917 0 0014 2.872 7.917 7.917 0 007.9 0C3.544 0 0 3.525 0 7.857c0 3.392 2.034 7.316 6.045 11.663 3.087 3.345 6.445 5.934 7.4 6.649l.555.414.554-.414c.956-.715 4.314-3.304 7.4-6.649C25.967 15.174 28 11.25 28 7.857 28 3.525 24.456 0 20.1 0zm.495 18.278c-2.54 2.751-5.27 4.975-6.595 6-1.325-1.025-4.056-3.249-6.595-6-3.637-3.94-5.559-7.544-5.559-10.42 0-3.32 2.716-6.022 6.054-6.022a6.063 6.063 0 015.293 3.108L14 6.392l.807-1.448A6.063 6.063 0 0120.1 1.836c3.338 0 6.054 2.701 6.054 6.021 0 2.877-1.922 6.48-5.56 10.421z"/></symbol><symbol id="fb" viewBox="0 0 16 16"><g clip-path="url(#clip0_2_191)"><path d="M16 8a8 8 0 10-9.25 7.903v-5.59H4.719V8H6.75V6.237c0-2.005 1.194-3.112 3.022-3.112.875 0 1.79.156 1.79.156V5.25h-1.008c-.994 0-1.304.617-1.304 1.25V8h2.219l-.355 2.313H9.25v5.59A8.002 8.002 0 0016 8z"/></g></symbol><symbol id="ig" viewBox="0 0 15 15"><path d="M15 7.5v3.249a4.202 4.202 0 01-2.724 3.896 5.62 5.62 0 01-2.115.353H4.524a4.495 4.495 0 01-2.564-.733 4.152 4.152 0 01-1.843-2.523A4.405 4.405 0 010 10.764V4.35c0-1.101.308-2.09 1.092-2.888A4.495 4.495 0 013.924.046C4.598-.014 5.273.003 5.934 0h4.306c.973 0 1.908.157 2.74.696a4.166 4.166 0 011.88 2.472c.087.353.131.715.133 1.079.016 1.083 0 2.166 0 3.25l.007.001zm-13.876 0v3.28c0 1.27.674 2.13 1.753 2.72a3.482 3.482 0 001.694.37h5.806a3.738 3.738 0 001.919-.492c1.016-.589 1.573-1.456 1.573-2.636a460.4 460.4 0 000-6.575c0-1.297-.735-2.153-1.843-2.721a3.425 3.425 0 00-1.598-.328H4.655a3.779 3.779 0 00-1.78.393c-1.077.56-1.727 1.431-1.751 2.678-.027 1.104 0 2.207 0 3.31z"/><path d="M1.124 7.5v3.28c0 1.27.674 2.13 1.753 2.72a3.482 3.482 0 001.694.37h5.806a3.738 3.738 0 001.919-.492c1.016-.589 1.573-1.456 1.573-2.636a460.4 460.4 0 000-6.575c0-1.297-.735-2.153-1.843-2.721a3.425 3.425 0 00-1.598-.328H4.655a3.779 3.779 0 00-1.78.393c-1.077.56-1.727 1.431-1.751 2.678-.027 1.104 0 2.207 0 3.31z"/><path d="M7.506 10.704a3.477 3.477 0 113.529-3.47 3.51 3.51 0 01-3.529 3.47zM5.108 7.226a2.404 2.404 0 102.405-2.36 2.396 2.396 0 00-2.405 2.36zM12.184 3.459a.74.74 0 11-.735-.766.764.764 0 01.735.766z"/></symbol><symbol id="ok" viewBox="0 0 16 16"><g clip-path="url(#clip0_2_193)"><circle cx="8" cy="8" r="8"/><path d="M9.77 12.659l-.46.131a4.887 4.887 0 01-2.889.352.823.823 0 01-.477-.237.877.877 0 01-.175-.788.8.8 0 01.854-.628c.255 0 .499.041.754.04a4.422 4.422 0 001.601-.388A4.611 4.611 0 0010.9 9.642c.162-.235.303-.484.422-.744.104-.236.278-.435.5-.568a.8.8 0 01.877.066.771.771 0 01.272 1.061 4.53 4.53 0 01-.726 1.334c-.315.381-.671.726-1.062 1.028l-.274.158.14.053 3.342.898a.793.793 0 01.629.71.897.897 0 01-.42.875.727.727 0 01-.572.063l-2.404-.623-.266-.103c-.078-.028-.114-.007-.137.08l-.358 1.34c-.123.46-.237.917-.412 1.395a.759.759 0 01-.912.527.908.908 0 01-.51-.291.74.74 0 01-.158-.676l.48-1.802.398-1.63.02-.134z"/><path d="M5.527 4.005a3.443 3.443 0 013.832.248 3.456 3.456 0 01.166 5.342 3.442 3.442 0 01-3.81.476 3.455 3.455 0 01-1.454-1.386 3.443 3.443 0 01-.331-2.602 3.433 3.433 0 011.597-2.078zm.236 3.825a1.712 1.712 0 001.69.862 1.705 1.705 0 001.425-2.22 1.712 1.712 0 00-2.453-.974 1.705 1.705 0 00-.662 2.332z"/></g></symbol><symbol id="pa" viewBox="0 0 23 28"><path d="M11.402 14.905h.18c1.64-.028 2.967-.618 3.947-1.747 2.156-2.486 1.798-6.748 1.758-7.155-.14-3.053-1.55-4.514-2.715-5.195C13.704.298 12.69.023 11.559 0h-.095c-.622 0-1.842.103-3.012.785-1.176.681-2.61 2.142-2.75 5.218-.039.407-.397 4.669 1.758 7.155.975 1.129 2.302 1.719 3.942 1.747zM7.197 6.147c0-.018.006-.035.006-.046.185-4.108 3.035-4.549 4.255-4.549h.068c1.511.035 4.082.665 4.255 4.549 0 .017 0 .034.006.046.005.04.397 3.935-1.383 5.986-.706.813-1.646 1.214-2.884 1.226h-.056c-1.232-.012-2.178-.413-2.878-1.226-1.775-2.04-1.394-5.952-1.389-5.986z"/><path d="M22.998 21.974v-.017c0-.046-.005-.092-.005-.143-.034-1.135-.107-3.787-2.537-4.635l-.056-.017c-2.525-.659-4.625-2.148-4.647-2.165a.744.744 0 00-1.053.189c-.24.35-.157.83.185 1.077.095.069 2.324 1.655 5.112 2.389 1.305.475 1.45 1.901 1.49 3.207 0 .052 0 .098.005.144.006.515-.028 1.311-.117 1.77-.907.527-4.463 2.348-9.872 2.348-5.387 0-8.965-1.827-9.878-2.354-.09-.458-.128-1.255-.117-1.77 0-.046.005-.092.005-.143.04-1.306.185-2.733 1.49-3.208 2.788-.733 5.017-2.326 5.112-2.389A.784.784 0 008.3 15.18a.744.744 0 00-1.053-.189c-.022.017-2.11 1.507-4.647 2.166a.655.655 0 00-.056.017C.114 18.027.04 20.679.007 21.808a1.176 1.176 0 01-.005.16c-.006.298-.012 1.828.285 2.595a.731.731 0 00.291.361c.168.115 4.194 2.738 10.93 2.738s10.762-2.629 10.93-2.738a.763.763 0 00.292-.36c.28-.763.274-2.292.268-2.59z"/></symbol><symbol id="phone" viewBox="0 0 23 24"><path d="M22.15 17.702l-2.827-2.984a1.927 1.927 0 00-2.826 0l-1.285 1.356a1.46 1.46 0 01-2.14 0l-5.569-5.883a1.66 1.66 0 010-2.26l1.285-1.356a2.192 2.192 0 00-.001-2.984L5.96.617A1.926 1.926 0 003.137.615l-1.03 1.078c-2.81 2.966-2.81 7.792 0 10.758l8.823 9.319c2.816 2.973 7.375 2.974 10.192 0l1.027-1.085c.78-.822.78-2.16 0-2.983zM4.076 1.612a.643.643 0 01.943 0l2.826 2.974a.73.73 0 010 .994l-.471.498-3.766-3.976.468-.49zm7.795 19.164L3.05 11.457C.876 9.162.756 5.559 2.682 3.113l3.755 3.964c-.987 1.18-.946 2.98.124 4.109l5.568 5.883c1.068 1.127 2.772 1.174 3.892.13l3.755 3.965c-2.309 2.03-5.715 1.922-7.904-.388zm9.335-1.085l-.47.497-3.77-3.978.472-.498a.642.642 0 01.942 0l2.826 2.984c.26.274.26.72 0 .995z"/></symbol><symbol id="vk" viewBox="0 0 19 18"><path d="M10.696 6.79c0 .455-.018.884-.02 1.308-.007.231.02.462.08.686a.69.69 0 00.232.364.226.226 0 00.202.039.855.855 0 00.328-.194 4.4 4.4 0 00.605-.683 12.922 12.922 0 001.542-2.801c.07-.167.139-.332.205-.503a.56.56 0 01.262-.303.645.645 0 01.24-.04h3.268c.09.012.178.036.262.071a.318.318 0 01.229.317c0 .18-.036.358-.105.523-.176.425-.398.83-.662 1.207-.492.749-1.051 1.448-1.577 2.163-.176.238-.341.484-.499.733a.719.719 0 00-.12.468c.022.16.096.31.21.424.191.204.386.406.59.597a16.284 16.284 0 011.543 1.57c.223.265.415.554.573.862a.952.952 0 01.078.262.475.475 0 01-.228.523c-.176.11-.378.172-.586.176-.775.02-1.55.015-2.322.06a1.946 1.946 0 01-1.361-.466 6.318 6.318 0 01-.788-.77c-.263-.285-.507-.573-.789-.845a1.787 1.787 0 00-.401-.296.466.466 0 00-.597.094c-.13.156-.22.341-.265.54a3.818 3.818 0 00-.14.926 2.33 2.33 0 01-.023.233.536.536 0 01-.368.432c-.127.053-.264.08-.402.081h-1.05a5.147 5.147 0 01-1.79-.343 6.874 6.874 0 01-2.69-1.832 16.757 16.757 0 01-1.944-2.597A36.726 36.726 0 01.054 5.292a.64.64 0 01-.05-.325.227.227 0 01.134-.194c.13-.065.272-.099.417-.099h2.612a.803.803 0 01.699.524c.225.594.497 1.17.811 1.722.341.615.725 1.205 1.148 1.767.144.208.322.39.526.54a.424.424 0 00.473.046.44.44 0 00.181-.209c.095-.218.154-.451.173-.688.058-.554.07-1.11.035-1.665a5.904 5.904 0 00-.103-.987c-.016-.081-.045-.16-.06-.241a.536.536 0 00-.284-.35 1.34 1.34 0 00-.596-.197c-.06 0-.082-.032-.056-.084a.575.575 0 01.09-.144c.192-.208.451-.343.733-.38.407-.07.82-.1 1.234-.091.46 0 .923 0 1.385.029.2.012.4.045.594.096a.7.7 0 01.562.66c.022.253.03.506.024.76-.006.342-.027.688-.04 1.007z"/></symbol><symbol id="yt" viewBox="0 0 15 16"><path d="M14.85 4.8s-.146-1.103-.597-1.587c-.571-.638-1.21-.641-1.503-.679-2.098-.162-5.247-.162-5.247-.162h-.006s-3.15 0-5.247.162c-.293.038-.932.041-1.503.679C.296 3.697.152 4.8.152 4.8S0 6.097 0 7.39v1.213c0 1.294.15 2.59.15 2.59s.146 1.104.594 1.588c.571.638 1.321.616 1.655.685 1.202.122 5.101.159 5.101.159s3.152-.006 5.25-.166c.293-.037.932-.04 1.503-.678.451-.484.598-1.587.598-1.587S15 9.9 15 8.604V7.39c0-1.294-.15-2.591-.15-2.591zm-8.9 5.275V5.578l4.052 2.256-4.052 2.241z"/></symbol></svg>